<?xml version="1.0" standalone="no"?>
<!DOCTYPE svg PUBLIC "-//W3C//DTD SVG 20010904//EN"
 "http://www.w3.org/TR/2001/REC-SVG-20010904/DTD/svg10.dtd">
<svg version="1.0" xmlns="http://www.w3.org/2000/svg"
 width="700.000000pt" height="700.000000pt" viewBox="0 0 700.000000 700.000000"
 preserveAspectRatio="xMidYMid meet">
<metadata>
Created by potrace 1.11, written by Peter Selinger 2001-2013
</metadata>
<g transform="translate(0.000000,700.000000) scale(0.100000,-0.100000)"
fill="#000000" stroke="none">
<path d="M3498 6895 c-1 -1 -32 -5 -68 -9 -302 -29 -528 -126 -709 -305 -121
-120 -199 -262 -235 -433 -5 -21 -19 -34 -59 -54 -184 -94 -304 -231 -369
-422 -40 -116 -46 -271 -17 -410 61 -292 225 -663 382 -866 29 -36 47 -71 51
-97 16 -99 97 -190 192 -217 23 -7 71 -12 106 -12 l65 0 7 -42 c8 -50 37 -115
66 -146 19 -20 20 -35 20 -369 l0 -348 -148 -145 c-207 -204 -419 -378 -632
-520 -128 -85 -153 -101 -240 -150 -95 -54 -128 -84 -153 -139 -28 -62 -25
-125 8 -202 15 -35 33 -77 40 -94 40 -94 115 -331 151 -480 8 -33 19 -76 24
-95 6 -19 19 -75 30 -125 87 -376 317 -690 650 -884 151 -88 373 -166 565
-197 17 -3 41 -7 55 -10 91 -16 391 -24 555 -14 131 8 321 67 464 143 374 199
637 613 727 1142 20 119 21 128 30 210 3 39 8 81 10 95 1 14 3 103 4 199 1
168 1 175 -25 227 -37 75 -78 106 -240 177 -403 179 -737 408 -918 629 l-37
45 0 162 c0 88 2 161 6 161 3 0 37 -13 76 -30 281 -120 506 -55 614 175 41 88
52 167 58 395 3 118 5 218 5 221 1 4 21 12 44 18 62 15 123 73 151 144 43 106
31 262 -27 348 -23 34 -120 100 -141 96 -8 -1 -11 56 -12 196 l-2 198 82 82
c164 165 219 354 146 504 l-18 38 72 46 c75 49 113 86 165 158 37 53 39 90 7
129 -20 23 -38 31 -98 42 -102 18 -104 20 -52 46 144 73 251 202 302 364 44
137 44 214 2 253 -36 32 -66 34 -125 7 -80 -36 -230 -71 -322 -74 -128 -4
-226 16 -387 81 -78 31 -154 60 -171 65 -134 40 -269 69 -385 84 -43 5 -337
14 -342 9z"/>
</g>
</svg>
